<?xml version="1.0" standalone="no"?>
<!DOCTYPE svg PUBLIC "-//W3C//DTD SVG 20010904//EN"
 "http://www.w3.org/TR/2001/REC-SVG-20010904/DTD/svg10.dtd">
<svg version="1.0" xmlns="http://www.w3.org/2000/svg"
 width="760.000000pt" height="581.000000pt" viewBox="0 0 760.000000 581.000000"
 preserveAspectRatio="xMidYMid meet">

<g transform="translate(0.000000,581.000000) scale(0.100000,-0.100000)"
fill="#000000" stroke="none">
<path d="M7400 5733 c-52 -19 -109 -42 -127 -49 -17 -8 -37 -14 -45 -14 -8 0
-18 -4 -23 -9 -6 -5 -26 -14 -45 -19 -19 -6 -60 -20 -90 -32 -30 -12 -66 -24
-80 -27 -14 -3 -34 -12 -45 -19 -11 -8 -29 -14 -40 -14 -12 0 -25 -4 -31 -9
-5 -4 -43 -20 -84 -34 -74 -25 -102 -36 -167 -63 -17 -8 -35 -14 -39 -14 -9 0
-165 -56 -211 -76 -17 -8 -37 -14 -45 -14 -8 0 -18 -4 -23 -9 -6 -5 -26 -14
-45 -19 -19 -6 -60 -20 -90 -32 -30 -12 -67 -25 -82 -27 -16 -3 -28 -9 -28
-14 0 -4 -17 -11 -37 -15 -21 -4 -42 -10 -48 -14 -5 -4 -39 -17 -75 -30 -36
-12 -79 -29 -97 -36 -17 -8 -37 -14 -45 -14 -8 0 -18 -4 -24 -9 -5 -5 -25 -14
-44 -19 -19 -6 -60 -20 -90 -32 -30 -12 -66 -24 -80 -27 -14 -3 -34 -12 -45
-19 -11 -8 -29 -14 -42 -14 -12 0 -24 -4 -28 -9 -3 -5 -19 -12 -36 -16 -17 -4
-42 -13 -57 -21 -15 -8 -32 -14 -39 -14 -7 0 -27 -6 -45 -14 -18 -8 -49 -21
-70 -30 -20 -9 -40 -16 -44 -16 -9 0 -165 -56 -211 -76 -17 -8 -38 -14 -46
-14 -9 0 -18 -4 -22 -9 -3 -5 -20 -13 -37 -17 -18 -3 -39 -10 -48 -15 -22 -13
-101 -40 -132 -46 -16 -3 -28 -9 -28 -14 0 -5 -7 -9 -15 -9 -8 0 -15 -7 -15
-15 0 -8 6 -15 13 -15 12 0 26 -9 74 -50 7 -5 15 -10 18 -10 8 0 69 -44 73
-52 2 -5 8 -8 13 -8 11 0 72 -42 77 -52 2 -5 8 -8 13 -8 11 0 72 -42 77 -52 2
-5 8 -8 14 -8 5 0 20 -8 33 -17 12 -10 33 -25 45 -33 12 -8 31 -23 42 -32 12
-10 25 -18 29 -18 12 0 109 -97 109 -109 0 -19 30 -18 58 2 17 12 40 29 52 37
12 8 28 21 36 28 7 6 17 12 22 12 8 0 23 11 69 50 7 5 15 10 18 10 6 0 67 41
75 51 3 4 14 9 25 13 11 3 34 19 52 34 51 44 76 62 86 62 5 0 15 6 22 13 22
19 36 29 100 72 33 22 65 44 72 50 7 5 19 16 27 23 8 6 19 12 24 12 8 0 23 11
69 50 7 5 15 10 18 10 5 0 64 39 75 50 14 14 70 50 79 50 5 0 11 3 13 8 4 9
65 52 73 52 4 0 13 6 20 13 26 22 39 32 123 86 45 30 82 58 82 63 0 4 6 8 13
8 12 0 26 9 74 50 7 5 16 10 21 10 8 0 23 11 69 50 7 5 16 10 21 10 5 0 17 9
27 20 10 11 24 20 31 20 7 0 14 3 16 8 4 9 65 52 73 52 4 0 13 6 20 13 26 22
39 32 123 86 45 30 82 58 82 63 0 4 6 8 13 8 12 0 26 9 74 50 7 5 16 10 21 10
8 0 23 11 69 50 7 5 15 10 18 10 5 0 64 39 75 50 11 11 70 50 75 50 3 0 11 5
18 10 48 41 62 50 72 50 7 0 15 7 19 15 7 20 7 20 -104 -22z"/>
<path d="M3343 4830 c-49 -28 -103 -84 -103 -108 0 -6 -4 -12 -9 -14 -5 -1
-13 -15 -16 -30 -6 -22 -4 -28 9 -28 9 0 16 -4 16 -10 0 -5 9 -10 19 -10 11 0
26 -7 35 -15 8 -8 18 -15 23 -15 4 0 69 -64 143 -141 74 -77 218 -225 320
-329 102 -104 253 -259 335 -346 191 -201 228 -236 234 -225 4 4 17 12 31 16
33 10 120 100 120 124 0 11 5 21 12 23 19 7 15 146 -5 183 -9 17 -17 34 -17
38 0 19 -868 876 -908 896 -31 16 -60 21 -114 21 -63 0 -80 -4 -125 -30z"/>
<path d="M4090 4763 c-74 -25 -141 -82 -164 -138 l-13 -30 291 -291 c279 -279
336 -346 336 -397 0 -9 7 -20 15 -25 13 -7 16 -72 18 -501 l2 -494 -95 -49
c-52 -27 -96 -53 -98 -59 -2 -5 -9 -9 -15 -9 -7 0 -57 -29 -112 -65 -54 -36
-104 -66 -110 -69 -9 -3 27 -46 40 -46 8 0 69 -44 73 -52 2 -5 7 -8 12 -8 4 0
116 -72 249 -160 241 -161 376 -245 419 -261 24 -9 30 -29 10 -29 -7 -1 -31
-9 -53 -20 -22 -11 -46 -19 -52 -20 -7 0 -13 -4 -13 -9 0 -5 -11 -12 -24 -15
-14 -3 -54 -20 -89 -36 -36 -17 -70 -30 -75 -30 -5 0 -23 -7 -38 -15 -16 -8
-37 -15 -46 -15 -9 0 -19 -4 -23 -9 -3 -5 -19 -12 -35 -16 -28 -6 -73 -24
-112 -46 -10 -5 -23 -9 -30 -9 -7 0 -25 -6 -40 -14 -15 -8 -40 -17 -57 -21
-17 -4 -33 -11 -36 -16 -4 -5 -14 -9 -23 -9 -9 0 -29 -7 -44 -14 -16 -8 -58
-25 -95 -37 -38 -12 -72 -26 -78 -31 -5 -4 -16 -8 -25 -8 -8 -1 -33 -9 -55
-20 -22 -11 -46 -19 -53 -20 -7 0 -20 -4 -30 -9 -54 -26 -90 -41 -116 -47 -16
-4 -41 -13 -55 -20 -14 -8 -32 -14 -39 -14 -7 0 -20 -4 -30 -10 -26 -14 -84
-37 -112 -45 -31 -9 -51 -25 -45 -35 3 -5 29 -12 58 -15 46 -6 56 -11 77 -43
14 -21 29 -42 35 -49 20 -25 31 -40 70 -98 22 -33 42 -62 45 -65 3 -3 27 -38
53 -77 26 -40 53 -78 60 -86 7 -7 17 -20 22 -29 22 -37 131 -194 143 -206 6
-7 12 -17 12 -20 0 -4 10 -19 23 -33 12 -14 27 -34 34 -45 27 -44 199 -329
208 -346 6 -9 50 -83 98 -163 82 -135 91 -146 115 -143 19 2 28 10 30 26 2 12
7 20 11 18 4 -3 23 9 42 25 19 17 50 42 69 57 19 15 40 32 46 37 6 6 37 33 69
60 32 28 75 66 96 85 20 19 63 58 95 85 120 104 494 484 609 620 17 19 39 45
50 58 23 27 85 101 115 136 25 30 25 32 0 54 -11 9 -20 24 -20 32 0 8 -4 15
-10 15 -5 0 -10 11 -10 25 0 14 -17 49 -38 78 -21 29 -62 87 -91 130 -29 43
-73 99 -97 123 -24 25 -44 49 -44 53 0 5 -10 19 -22 33 -13 13 -34 39 -48 58
-14 18 -34 43 -45 55 -11 11 -33 39 -49 61 -17 21 -33 41 -36 44 -3 3 -17 23
-30 45 -13 22 -27 42 -30 45 -4 3 -10 12 -13 20 -4 8 -18 33 -32 55 -13 22
-27 48 -31 58 -3 9 -11 17 -16 17 -13 0 -5 71 17 140 9 30 23 78 30 105 21 78
66 238 72 255 4 8 7 21 9 29 1 8 9 35 17 60 8 25 18 62 22 81 4 19 12 41 19
49 6 8 9 15 7 15 -6 1 9 78 17 91 4 5 12 33 19 60 6 28 19 77 28 110 28 96 28
134 5 215 -12 41 -28 98 -35 125 -7 28 -21 75 -30 105 -25 84 -50 178 -89 335
-7 28 -18 63 -24 78 -7 16 -12 31 -12 35 -1 27 -107 108 -385 293 -176 117
-326 219 -333 226 -6 6 -21 15 -32 18 -11 3 -20 11 -20 16 0 5 -7 9 -15 9 -8
0 -15 4 -15 9 0 5 -22 18 -49 30 -47 20 -142 28 -181 14z"/>
<path d="M3081 4573 c-29 -8 -65 -21 -80 -31 -67 -42 -121 -130 -121 -199 0
-21 -5 -56 -10 -78 -11 -45 4 -65 47 -65 13 0 23 -4 23 -10 0 -5 7 -10 15 -10
8 0 23 -9 32 -20 10 -11 22 -20 29 -20 6 0 66 -60 134 -132 240 -258 416 -444
521 -549 58 -59 121 -127 140 -151 55 -71 219 -241 246 -255 63 -32 176 -2
244 66 25 25 53 62 62 83 23 48 23 158 0 206 -23 49 -85 117 -423 463 -91 93
-271 277 -400 409 -129 133 -247 250 -261 260 -14 10 -52 25 -85 32 -50 12
-68 12 -113 1z"/>
<path d="M2735 4143 c-23 -6 -105 -63 -105 -73 0 -3 -8 -15 -18 -26 -31 -33
-51 -106 -57 -204 -3 -52 -8 -107 -10 -122 l-4 -27 82 0 c50 0 83 -4 85 -10 2
-6 12 -11 21 -11 16 0 35 -13 76 -48 6 -5 64 -66 130 -136 66 -70 170 -178
231 -241 143 -148 247 -262 258 -286 5 -11 12 -19 16 -19 4 0 10 -19 14 -42
12 -75 98 -128 207 -128 37 0 70 4 73 9 3 5 17 12 32 15 14 4 31 11 37 17 46
38 67 59 67 69 0 5 4 10 8 10 20 0 42 80 42 149 l0 73 -63 66 c-35 37 -198
211 -362 387 -386 414 -523 555 -540 555 -7 0 -15 5 -17 12 -4 12 -166 21
-203 11z"/>
<path d="M5316 3797 c3 -17 10 -38 14 -47 8 -17 26 -81 40 -148 5 -24 12 -48
15 -53 10 -15 40 -10 63 9 11 10 38 27 59 38 21 10 43 24 49 29 6 6 27 19 47
30 20 11 37 23 37 27 0 5 7 8 15 8 29 0 15 28 -17 35 -18 4 -37 11 -43 15 -5
4 -26 11 -45 15 -19 4 -39 11 -45 15 -5 4 -28 12 -50 18 -22 6 -64 17 -93 26
l-53 15 7 -32z"/>
<path d="M2535 3613 c-27 -8 -57 -21 -66 -29 -8 -8 -19 -14 -22 -14 -11 0 -47
-39 -47 -50 0 -5 -4 -10 -8 -10 -18 0 -47 -89 -53 -160 -4 -41 -15 -140 -25
-220 -27 -211 -21 -399 15 -444 4 -6 11 -24 15 -40 4 -15 14 -35 23 -44 14
-14 16 -14 25 1 5 9 16 17 23 17 8 0 15 3 15 8 0 4 17 18 38 32 40 27 55 38
77 58 7 6 18 12 23 12 5 0 20 9 33 20 40 33 43 35 80 58 20 12 42 22 49 22 6
0 78 -67 158 -148 81 -82 161 -157 177 -168 42 -27 212 -28 239 -1 10 9 22 17
27 17 14 0 78 71 85 95 4 11 11 23 15 26 5 3 12 33 15 67 12 108 -14 153 -185
332 -51 52 -156 162 -234 244 -161 168 -266 276 -289 293 -14 10 -131 44 -146
42 -4 -1 -29 -8 -57 -16z"/>
<path d="M4447 3503 c-12 -11 -7 -36 13 -78 l19 -40 1 63 c0 45 -4 62 -13 62
-8 0 -17 -3 -20 -7z"/>
<path d="M4457 3179 c-9 -21 -17 -44 -17 -49 0 -6 -3 -10 -7 -10 -5 0 -19 -18
-33 -40 -13 -22 -27 -40 -30 -40 -4 0 -17 -9 -30 -20 -13 -11 -29 -20 -37 -20
-7 0 -13 -3 -13 -8 0 -4 -23 -15 -51 -25 -38 -14 -74 -18 -142 -16 l-90 3 -12
-39 c-6 -22 -18 -51 -26 -65 -20 -36 -102 -120 -116 -120 -7 0 -13 -4 -13 -10
0 -5 -6 -10 -12 -10 -7 0 -26 -8 -43 -17 -23 -13 -55 -17 -136 -17 l-106 1
-12 -31 c-44 -104 -117 -194 -171 -211 -14 -4 -28 -12 -31 -17 -3 -5 -36 -13
-72 -19 -141 -22 -258 19 -356 125 -186 200 -191 204 -223 174 -7 -7 -31 -25
-53 -40 -22 -15 -53 -39 -70 -53 -41 -34 -46 -38 -75 -56 -14 -9 -36 -26 -48
-37 -13 -12 -29 -23 -35 -25 -12 -4 39 -87 53 -87 4 0 11 -9 16 -19 10 -21 60
-83 111 -140 18 -20 33 -39 33 -43 0 -3 14 -20 30 -36 17 -17 30 -34 30 -39 0
-4 14 -21 30 -37 32 -31 40 -66 16 -66 -8 0 -21 -6 -28 -12 -18 -17 -46 -35
-78 -50 -14 -7 -27 -15 -30 -18 -14 -14 -71 -50 -80 -50 -5 0 -10 -3 -10 -8 0
-4 -20 -18 -45 -32 -25 -14 -45 -28 -45 -32 0 -5 -6 -8 -13 -8 -7 0 -22 -7
-32 -15 -32 -25 -173 -115 -180 -115 -7 0 -25 -14 -62 -48 -13 -12 -29 -20
-34 -17 -5 4 -9 1 -9 -4 0 -6 -7 -11 -16 -11 -9 0 -18 -9 -21 -19 -3 -11 -11
-17 -18 -15 -7 3 -19 -2 -28 -10 -9 -9 -20 -16 -24 -16 -5 0 -25 -13 -43 -30
-18 -16 -39 -30 -46 -30 -12 0 -33 -16 -84 -63 -8 -8 -28 -17 -44 -21 -16 -4
-30 -15 -33 -27 -4 -13 -11 -18 -23 -14 -10 3 -25 -1 -33 -10 -9 -8 -20 -15
-26 -15 -6 0 -11 -9 -11 -19 0 -14 -5 -18 -19 -14 -10 2 -25 -3 -34 -11 -8 -9
-20 -16 -25 -16 -4 0 -31 -16 -58 -35 -27 -19 -54 -35 -61 -35 -6 0 -13 -3
-15 -7 -5 -12 -66 -53 -78 -53 -5 0 -10 -4 -10 -10 0 -5 -5 -10 -10 -10 -10 0
-69 -38 -80 -51 -3 -4 -15 -9 -27 -13 -13 -4 -23 -12 -23 -17 0 -5 -4 -9 -9
-9 -9 0 -99 -56 -136 -85 -10 -8 -25 -15 -32 -15 -7 0 -13 -3 -13 -8 0 -4 -20
-18 -45 -32 -25 -14 -45 -28 -45 -32 0 -5 -6 -8 -13 -8 -12 0 -26 -9 -74 -50
-7 -5 -16 -10 -21 -10 -5 0 -31 -16 -58 -35 -27 -19 -54 -35 -61 -35 -6 0 -13
-3 -15 -8 -5 -11 -66 -52 -78 -52 -5 0 -10 -4 -10 -10 0 -5 -5 -10 -10 -10
-10 0 -69 -38 -80 -51 -3 -4 -15 -9 -27 -13 -13 -4 -23 -12 -23 -17 0 -5 -4
-9 -9 -9 -9 0 -99 -56 -136 -85 -10 -8 -25 -15 -32 -15 -7 0 -13 -3 -13 -8 0
-4 -20 -18 -45 -32 -25 -14 -45 -28 -45 -31 0 -4 -11 -10 -25 -13 -14 -4 -25
-11 -25 -16 0 -6 -6 -10 -14 -10 -8 0 -16 -7 -20 -15 -6 -16 4 -20 19 -7 6 5
39 19 75 31 36 12 79 28 95 36 17 7 48 20 70 28 22 8 60 23 85 32 25 9 61 23
80 30 34 12 70 26 163 61 23 9 51 20 62 25 26 11 102 38 142 50 18 5 35 14 38
19 4 6 16 10 29 10 12 0 26 4 31 8 6 5 39 19 75 31 36 13 79 29 95 36 17 8 68
28 115 45 47 18 99 38 117 46 17 8 36 14 42 14 6 0 25 6 43 14 18 8 53 22 78
31 25 10 54 21 65 26 26 11 102 38 142 50 18 5 35 14 38 19 4 6 16 10 29 10
12 0 26 4 32 8 5 5 38 19 74 31 36 13 79 29 95 36 17 8 68 28 115 45 47 18 99
38 117 46 17 8 36 14 42 14 6 0 25 6 43 14 18 8 53 22 78 31 25 10 59 24 77
31 17 8 36 14 42 14 6 0 25 6 43 14 18 8 49 21 70 30 20 9 42 16 50 16 8 0 18
4 24 8 5 5 38 19 74 31 36 13 79 29 95 36 17 8 68 28 115 45 47 18 99 38 117
46 17 8 36 14 42 14 6 0 25 6 43 14 18 8 49 21 70 30 20 9 43 16 51 16 9 0 18
4 22 9 3 5 19 12 36 16 17 4 42 13 57 21 15 8 32 14 38 14 7 0 25 7 40 15 16
8 37 15 46 15 9 0 19 3 21 8 3 4 38 18 79 32 40 14 75 28 78 31 3 4 21 11 40
16 36 11 152 54 207 79 17 8 38 14 46 14 9 0 18 4 22 9 3 5 19 12 36 16 17 4
42 13 57 21 15 8 32 14 38 14 7 0 25 7 40 15 16 8 37 15 46 15 9 0 19 4 23 9
3 5 19 12 36 16 17 4 42 13 57 21 15 8 35 14 44 14 9 0 19 3 21 8 3 4 38 18
79 32 40 14 75 28 78 31 3 3 37 16 75 28 39 13 74 27 79 32 10 9 -31 48 -51
49 -7 0 -13 3 -13 8 0 4 -20 18 -45 32 -25 14 -45 28 -45 32 0 5 -5 8 -10 8
-12 0 -73 41 -78 53 -2 4 -8 7 -13 7 -11 0 -72 42 -77 53 -2 4 -8 7 -13 7 -11
0 -72 42 -77 53 -2 4 -9 7 -16 7 -11 0 -25 9 -73 50 -7 5 -16 10 -21 10 -5 0
-19 8 -30 18 -12 9 -67 46 -122 82 -55 35 -100 67 -100 70 1 7 70 50 81 50 5
0 9 5 9 10 0 6 6 10 13 10 6 0 34 16 61 35 27 19 55 35 63 35 7 0 13 3 13 8 0
4 17 16 37 27 20 11 41 25 47 30 6 6 33 21 59 35 26 13 47 28 47 32 0 3 10 10
22 14 12 3 28 12 35 19 7 7 18 15 25 17 8 3 11 40 10 132 -1 71 -3 130 -4 132
-2 2 -11 -15 -21 -37z"/>
<path d="M1746 1855 c4 -8 8 -15 10 -15 2 0 4 7 4 15 0 8 -4 15 -10 15 -5 0
-7 -7 -4 -15z"/>
</g>
</svg>
